<svg width="60" height="60" viewBox="0 0 60 60" fill="none" xmlns="http://www.w3.org/2000/svg">
<path fill-rule="evenodd" clip-rule="evenodd" d="M41.656 25.3H41.653L28.378 25.294C29.863 23.832 30.788 21.884 31.635 20.096C32.835 17.566 33.87 15.38 36.077 14.668C36.518 14.5283 36.9765 14.4515 37.439 14.44C37.499 14.438 37.559 14.43 37.616 14.419L41.66 14.425C42.3733 14.4256 43.0794 14.5678 43.7374 14.8433C44.3954 15.1188 44.9921 15.5222 45.493 16.03C45.9993 16.534 46.4008 17.1332 46.6744 17.7931C46.948 18.4531 47.0882 19.1606 47.087 19.875C47.0852 21.3141 46.5123 22.6936 45.4942 23.7108C44.4762 24.7279 43.0951 25.2995 41.656 25.3ZM36.081 42.953C36.079 45.951 33.643 48.395 30.651 48.395H30.647C27.652 48.395 25.218 45.945 25.22 42.947L25.23 27.515L36.091 27.525L36.081 42.953ZM23.588 25.291L18.793 25.289C18.0803 25.29 17.3744 25.1495 16.7164 24.8755C16.0584 24.6015 15.4614 24.1996 14.96 23.693C14.4536 23.1881 14.052 22.588 13.7785 21.9272C13.5049 21.2665 13.3647 20.5581 13.366 19.843C13.368 16.846 15.804 14.391 18.796 14.391H18.8L32.515 14.411C31.27 15.723 30.449 17.455 29.645 19.151C28.458 21.655 27.337 24.021 24.971 24.945C24.5261 25.117 24.0615 25.2332 23.588 25.291ZM51.123 8.811C45.473 3.146 37.957 0 29.96 0H29.938C21.949 0 14.438 3.127 8.78401 8.782C3.12501 14.44 0.00600602 21.975 6.02149e-06 29.983C-0.00499398 37.993 3.10401 45.53 8.75501 51.197C14.405 56.864 21.921 60 29.918 60H29.938C37.928 60 45.44 56.884 51.094 51.23C56.752 45.57 59.871 38.042 59.877 30.034C59.883 22.025 56.774 14.478 51.123 8.812V8.811Z" fill="#E65D7B"/>
<path fill-rule="evenodd" clip-rule="evenodd" d="M41.698 17.368C41.1081 17.3683 40.5424 17.6028 40.1253 18.02C39.7083 18.4373 39.474 19.0031 39.474 19.593C39.474 20.823 40.468 21.82 41.696 21.821C42.2859 21.8207 42.8516 21.5862 43.2687 21.169C43.6857 20.7517 43.92 20.1859 43.92 19.596C43.9205 19.3039 43.8635 19.0145 43.7522 18.7444C43.6408 18.4743 43.4773 18.2288 43.2711 18.0219C43.0648 17.815 42.8198 17.6507 42.5501 17.5385C42.2804 17.4263 41.9901 17.3684 41.698 17.368Z" fill="#E65D7B"/>
</svg>
