<svg width="60" height="60" viewBox="0 0 60 60" fill="none" xmlns="http://www.w3.org/2000/svg">
<path fill-rule="evenodd" clip-rule="evenodd" d="M41.653 25.3H41.656C43.0951 25.2995 44.4762 24.7279 45.4942 23.7108C46.5123 22.6936 47.0852 21.3141 47.087 19.875C47.0882 19.1606 46.948 18.4531 46.6744 17.7931C46.4008 17.1332 45.9993 16.534 45.493 16.03C44.9921 15.5222 44.3954 15.1188 43.7374 14.8433C43.0794 14.5678 42.3733 14.4256 41.66 14.425L37.616 14.419C37.559 14.43 37.499 14.438 37.439 14.44C36.9765 14.4515 36.518 14.5283 36.077 14.668C33.8722 15.3793 32.837 17.5617 31.6385 20.0886L31.635 20.096C30.788 21.884 29.863 23.832 28.378 25.294L41.653 25.3ZM30.651 48.395C33.643 48.395 36.079 45.951 36.081 42.953L36.091 27.525L25.23 27.515L25.22 42.947C25.218 45.945 27.652 48.395 30.647 48.395H30.651ZM18.793 25.289L23.588 25.291C24.0615 25.2332 24.5261 25.117 24.971 24.945C27.3363 24.0213 28.4573 21.6564 29.6439 19.1533L29.645 19.151L29.6453 19.1505C30.4492 17.4546 31.2701 15.7229 32.515 14.411L18.8 14.391H18.796C15.804 14.391 13.368 16.846 13.366 19.843C13.3647 20.5581 13.5049 21.2665 13.7785 21.9272C14.052 22.588 14.4536 23.1881 14.96 23.693C15.4614 24.1996 16.0584 24.6015 16.7164 24.8755C17.3744 25.1495 18.0803 25.29 18.793 25.289ZM40.1253 18.02C40.5424 17.6028 41.1081 17.3683 41.698 17.368C41.9901 17.3684 42.2804 17.4263 42.5501 17.5385C42.8198 17.6507 43.0648 17.815 43.2711 18.0219C43.4773 18.2288 43.6408 18.4743 43.7522 18.7444C43.8635 19.0145 43.9205 19.3039 43.92 19.596C43.92 20.1859 43.6857 20.7517 43.2687 21.169C42.8516 21.5862 42.2859 21.8207 41.696 21.821C40.468 21.82 39.474 20.823 39.474 19.593C39.474 19.0031 39.7083 18.4373 40.1253 18.02Z" fill="white"/>
</svg>
