<svg width="60" height="60" xmlns="http://www.w3.org/2000/svg"><g fill="#FFF" fill-rule="evenodd"><path d="M41.778 25.3h-.003L28.5 25.294c1.485-1.462 2.41-3.41 3.257-5.198 1.2-2.53 2.235-4.716 4.442-5.428a4.915 4.915 0 011.362-.228c.06-.002.12-.01.177-.021l4.044.006a5.39 5.39 0 013.833 1.605 5.412 5.412 0 011.594 3.845 5.432 5.432 0 01-5.43 5.425zm-5.575 17.653c-.002 2.998-2.438 5.442-5.43 5.442h-.004c-2.995 0-5.429-2.45-5.427-5.448l.01-15.432 10.861.01-.01 15.428zM23.71 25.291l-4.795-.002a5.382 5.382 0 01-3.833-1.596 5.423 5.423 0 01-1.594-3.85c.002-2.997 2.438-5.452 5.43-5.452h.004l13.715.02c-1.245 1.312-2.066 3.044-2.87 4.74-1.187 2.504-2.308 4.87-4.674 5.794a5.78 5.78 0 01-1.383.346zm27.535-16.48C45.595 3.146 38.079 0 30.082 0h-.022c-7.989 0-15.5 3.127-21.154 8.782C3.247 14.44.128 21.975.122 29.983c-.005 8.01 3.104 15.547 8.755 21.214C14.527 56.864 22.043 60 30.04 60h.02c7.99 0 15.502-3.116 21.156-8.77 5.658-5.66 8.777-13.188 8.783-21.196.006-8.009-3.103-15.556-8.754-21.222z"/><path d="M41.82 17.368a2.225 2.225 0 00-2.224 2.225c0 1.23.994 2.227 2.222 2.228a2.225 2.225 0 002.224-2.225 2.224 2.224 0 00-2.221-2.228"/></g></svg>